<?xml version="1.0" encoding="utf-8"?>
<!-- Generator: Adobe Illustrator 23.1.0, SVG Export Plug-In . SVG Version: 6.00 Build 0)  -->
<svg version="1.1" id="레이어_1" xmlns="http://www.w3.org/2000/svg" xmlns:xlink="http://www.w3.org/1999/xlink" x="0px"
	 y="0px" viewBox="0 0 30 30" style="enable-background:new 0 0 30 30;" xml:space="preserve">
<style type="text/css">
	.st0{clip-path:url(#SVGID_2_);fill:#FFFFFF;}
</style>
<g>
	<defs>
		<rect id="SVGID_1_" width="30" height="30"/>
	</defs>
	<clipPath id="SVGID_2_">
		<use xlink:href="#SVGID_1_"  style="overflow:visible;"/>
	</clipPath>
	<path class="st0" d="M14.79,11.34c0,0-0.46-6.79,6.05-5.8c0,0,1.7,0.64,2.23,1.45c0,0,1.84-0.42,2.9-1.13c0,0,0.35,0.78-1.66,2.53
		l2.44-0.55l-2.33,2.41c0,0,0.32,3.89-2.16,7.99c0,0-3.29,5.8-9.3,6.23c0,0-6.05,0.71-9.69-1.77c0,0,4.99-0.21,6.83-2.23
		c0,0-2.9,0.11-4.35-3.22l2.12-0.11c0,0-4-1.27-3.71-4.81c0,0,1.1,0.57,1.88,0.46c0,0-3.29-2.8-1.45-6.37
		C4.56,6.42,8.56,11.31,14.79,11.34"/>
</g>
</svg>
